# Blender 4.0.2
# www.blender.org
mtllib untitled.mtl
o TomMesh_0Mesh
v -1.278462 10.939079 0.735696
v -0.741191 10.939079 1.272967
v 0.726665 10.939079 1.272967
v 1.460598 10.939079 0.001768
v 1.370278 10.862882 -0.793554
v 1.263938 10.939079 -0.732160
v 0.788062 10.862882 -1.375773
v 0.726665 10.939079 -1.269431
v -0.007263 10.862882 -1.588872
v -0.007263 10.939079 -1.466093
v -0.802585 10.862882 -1.375773
v -0.741191 10.939079 -1.269431
v -1.384801 10.862882 -0.793554
v -1.597902 10.862882 0.001768
v -0.007263 10.939079 1.469629
v 1.263938 10.939079 0.735696
v 1.263938 11.312380 0.735696
v 1.460598 11.312380 0.001768
v 1.263938 11.312380 -0.732160
v 0.726665 11.312380 -1.269431
v -1.278462 10.939079 -0.732160
v -1.475121 10.939079 0.001768
v -1.278461 6.518179 -0.732160
v -0.741191 9.750380 -1.269431
v -0.741191 6.518179 -1.269431
v -0.007263 6.518179 -1.466093
v -1.630390 3.675683 0.001768
v -1.412941 3.675683 -0.809800
v -0.818827 3.675683 -1.403911
v -0.007262 3.675683 -1.621363
v 0.726665 6.518179 -1.269431
v 1.263939 6.518179 -0.732160
v -1.690761 3.035678 -0.970201
v -0.979228 3.035678 -1.681731
v -0.007262 3.035678 -1.942173
v 0.964707 3.035678 -1.681731
v 0.804306 3.675683 -1.403911
v -1.951200 3.035678 0.001768
v -2.727691 2.386980 0.001768
v -2.363221 2.386980 -1.358443
v -1.367470 2.386980 -2.354191
v -0.007262 2.386980 -2.718661
v 1.352949 2.386980 -2.354191
v 1.676240 3.035678 -0.970201
v 1.398420 3.675683 -0.809800
v -2.841650 1.488079 -1.634673
v -1.643700 1.488079 -2.832623
v -0.007262 1.488079 -3.271104
v 1.629179 1.488079 -2.832623
v 2.348700 2.386980 -1.358443
v 1.936679 3.035678 0.001768
v -3.108449 0.589081 -1.788711
v -1.797741 0.589081 -3.099422
v -0.007262 0.589081 -3.579183
v 1.783220 0.589081 -3.099422
v 2.827129 1.488079 -1.634673
v 2.713170 2.386980 0.001768
v -3.812550 -0.309820 0.001768
v -3.302742 -0.309820 -1.900883
v -1.909910 -0.309820 -3.293712
v -0.007262 -0.309820 -3.803523
v 1.895378 -0.309820 -3.293712
v 3.093928 0.589081 -1.788711
v 3.265610 1.488079 0.001768
v -3.302741 -18.655119 -1.900883
v -1.909909 -18.655119 -3.293712
v -0.007261 -18.655119 -3.803523
v 1.895379 -18.655119 -3.293712
v 3.288219 -18.655119 -1.900883
v 3.288218 -0.309820 -1.900883
v -3.812549 -18.655119 0.001768
v -3.251199 -18.798801 -1.871121
v -1.880150 -18.798801 -3.242173
v -0.007261 -18.798801 -3.744003
v 1.865631 -18.798801 -3.242173
v 3.236680 -18.798801 -1.871121
v 3.798030 -18.655119 0.001768
v -3.609349 -18.858320 0.001768
v -3.126759 -18.858320 -1.799283
v -1.808309 -18.858320 -3.117733
v -0.007261 -18.858320 -3.600323
v 1.793790 -18.858320 -3.117733
v 3.112240 -18.858320 -1.799283
v 3.738510 -18.798801 0.001768
v -2.508980 -18.858320 -1.442603
v -1.451629 -18.858320 -2.499952
v -0.007261 -18.858320 -2.886971
v 1.437110 -18.858320 -2.499952
v 2.494462 -18.858320 -1.442603
v -2.513798 -18.413155 0.001768
v -2.177991 -18.413155 -1.251501
v -1.260530 -18.413155 -2.168962
v -0.007261 -18.413155 -2.504773
v 1.246011 -18.413155 -2.168962
v 2.163472 -18.413155 -1.251501
v 2.881481 -18.858320 0.001768
v 2.499280 -18.413155 0.001768
v 2.494462 -18.858320 1.446139
v 3.594831 -18.858320 0.001768
v 3.236681 -18.798801 1.874657
v 3.288220 -18.655119 1.904418
v 1.946111 -18.019930 0.001768
v 2.163472 -18.413155 1.255037
v 1.437111 -18.858320 2.503488
v 3.112241 -18.858320 1.802818
v 1.865632 -18.798801 3.245708
v 1.895391 -18.655119 3.297247
v 1.246011 -18.413155 2.172498
v -0.007260 -18.858320 2.890507
v 1.793791 -18.858320 3.121269
v -0.007260 -18.798801 3.747549
v -0.007260 -18.655119 3.807059
v -0.007260 -18.413155 2.508308
v -1.451628 -18.858320 2.503488
v -0.007260 -18.858320 3.603858
v -1.880149 -18.798801 3.245708
v -1.909908 -18.655119 3.297247
v -0.007260 -18.019930 1.955137
v -1.260529 -18.413155 2.172498
v -2.508980 -18.858320 1.446139
v -1.808308 -18.858320 3.121269
v -3.251198 -18.798801 1.874657
v -3.302740 -18.655119 1.904418
v -0.983947 -18.019930 1.693438
v -2.177991 -18.413155 1.255037
v -2.896000 -18.858320 0.001768
v -3.126758 -18.858320 1.802818
v -3.753029 -18.798801 0.001768
v -1.475121 11.312380 0.001768
v -1.273593 11.312380 0.001768
v -1.103941 11.312380 -0.631398
v -1.278462 11.312380 -0.732160
v -0.741191 11.312380 -1.269431
v -0.007263 11.312380 -1.264562
v -0.007263 11.312380 -1.466093
v 0.625906 11.312380 -1.094913
v 1.089418 11.312380 0.634934
v 0.625906 11.312380 1.098448
v 0.726665 11.312380 1.272967
v -0.007263 11.312380 1.268108
v -0.007263 11.312380 1.469629
v -0.640429 11.312380 1.098448
v -0.741191 11.312380 1.272967
v -1.103941 11.312380 0.634934
v -1.278462 11.312380 0.735696
v -1.384801 9.835479 0.797090
v -1.597902 9.835479 0.001768
v -1.384801 10.862882 0.797090
v -0.802585 9.835479 1.379309
v -0.802585 10.862882 1.379309
v -0.007263 10.862882 1.592417
v 0.788062 10.862882 1.379309
v 1.370278 10.862882 0.797090
v 1.583379 10.862882 0.001768
v -0.802585 9.835479 -1.375773
v -1.384801 9.835479 -0.793554
v -0.007263 9.835479 1.592417
v 0.726665 9.750380 1.272967
v 0.788062 9.835479 1.379309
v 1.263938 9.750380 0.735696
v 1.370278 9.835479 0.797090
v 1.460598 9.750380 0.001768
v 1.583379 9.835479 0.001768
v 1.263938 9.750380 -0.732160
v 1.370278 9.835479 -0.793554
v 0.726665 9.750380 -1.269431
v 0.788062 9.835479 -1.375773
v -0.007263 9.750380 -1.466093
v -0.007263 9.835479 -1.588872
v -1.278462 9.750380 -0.732160
v -1.475121 9.750380 0.001768
v -1.103941 10.728181 0.634934
v -1.273593 10.728181 0.001768
v -0.007263 10.728181 1.268108
v -0.640429 10.728181 1.098448
v 0.625906 10.728181 1.098448
v 1.259067 11.312380 0.001768
v 1.089418 11.312380 -0.631398
v -0.640429 11.312380 -1.094913
v -1.103941 10.728181 -0.631398
v 1.089418 10.728181 0.634934
v 1.259067 10.728181 0.001768
v 1.089418 10.728181 -0.631398
v 0.625906 10.728181 -1.094913
v -0.007263 10.728181 -1.264562
v -0.640429 10.728181 -1.094913
v -3.302742 -0.309820 1.904418
v -1.909910 -0.309820 3.297247
v -0.007262 -0.309820 3.807059
v 1.895389 -0.309820 3.297247
v -3.588210 0.589081 0.001768
v -3.108449 0.589081 1.792247
v -1.797741 0.589081 3.102958
v -0.007262 0.589081 3.582718
v 1.783220 0.589081 3.102958
v 3.288218 -0.309820 1.904418
v -3.280130 1.488079 0.001768
v -2.841650 1.488079 1.638209
v -1.643700 1.488079 2.836159
v -0.007262 1.488079 3.274639
v 1.629179 1.488079 2.836159
v 3.093928 0.589081 1.792247
v 3.798029 -0.309820 0.001768
v -2.363221 2.386980 1.361979
v -1.367470 2.386980 2.357727
v -0.007262 2.386980 2.722197
v 1.352949 2.386980 2.357727
v 2.827129 1.488079 1.638209
v 3.573688 0.589081 0.001768
v -1.690761 3.035678 0.973737
v -0.979228 3.035678 1.685267
v -0.007262 3.035678 1.945709
v 0.964707 3.035678 1.685267
v 2.348700 2.386980 1.361979
v -1.412941 3.675683 0.813336
v -0.818827 3.675683 1.407447
v -0.007262 3.675683 1.624899
v 0.804306 3.675683 1.407447
v 1.398420 3.675683 0.813336
v 1.676240 3.035678 0.973737
v -1.475120 6.518179 0.001768
v -1.278461 6.518179 0.735696
v -0.741190 6.518179 1.272967
v -0.007262 6.518179 1.469629
v 0.726666 6.518179 1.272967
v 1.263939 6.518179 0.735696
v 1.615869 3.675683 0.001768
v -1.278462 9.750380 0.735696
v -0.741191 9.750380 1.272967
v -0.007263 9.750380 1.469629
v 1.460598 6.518179 0.001768
v -0.007261 -18.019930 0.001768
v 0.969428 -18.019930 1.693438
v 1.684410 -18.019930 0.978454
v 1.684410 -18.019930 -0.974918
v 0.969428 -18.019930 -1.689903
v -0.007261 -18.019930 -1.951601
v -0.983947 -18.019930 -1.689903
v -1.698929 -18.019930 -0.974918
v -1.960630 -18.019930 0.001768
v -1.698929 -18.019930 0.978454
v 0.594392 15.053181 1.467917
v 0.193849 15.114679 1.355458
v 0.629342 14.955581 1.091677
v -0.063430 14.514076 1.683769
v -0.806332 14.698082 1.425428
v -0.622733 15.631375 1.554637
v 1.020497 15.796578 1.655107
v 1.362808 15.304079 0.656018
v -0.343475 13.637078 1.401938
v -1.137431 14.976180 1.003838
v -1.009331 15.282278 0.886836
v -0.917467 16.086477 1.273818
v 0.133926 13.790678 1.385517
v 0.192457 12.729784 1.008347
v -0.817972 12.723680 1.306708
v -0.800683 13.450479 0.714799
v -1.087563 13.713781 -0.099291
v -1.083321 14.917676 -0.135727
v -1.391962 15.577277 -0.094064
v -1.501713 16.216879 0.032705
v -1.387103 15.032083 -0.603504
v -0.796167 15.245875 -1.096063
v -0.755869 16.099379 -1.584752
v 0.062765 15.903476 -1.374783
v -0.920609 14.768075 -0.554510
v -0.847066 14.800776 -0.993465
v -0.187778 15.044180 -1.629433
v 0.839779 15.441279 -1.428831
v 1.674438 15.819377 -0.788449
v -0.799923 13.784281 -0.495005
v -0.769456 13.546878 -0.871527
v -0.014289 14.699983 -1.424912
v 0.582650 14.696679 -1.129723
v 0.913914 14.521978 -0.853008
v -0.998886 12.580583 0.067376
v -0.831452 12.184580 -0.709531
v -0.514966 12.483280 -0.769828
v 0.122635 12.754775 -0.853544
v -0.083156 13.309278 -1.271433
v 0.593589 13.664783 -1.184582
v -1.075831 12.534980 0.755630
v -1.056562 11.336979 0.679818
v -1.363011 11.030181 -0.113033
v -1.058122 11.207578 -0.623311
v -0.794703 11.196379 -0.923831
v -0.003052 11.280979 -1.226332
v -0.355504 11.544384 0.807192
v -0.620528 8.756080 0.882487
v -1.177583 8.856180 0.735869
v -0.868831 9.235879 -0.009479
v -0.854894 8.770679 -0.431841
v -0.483152 9.123179 -1.098611
v -0.227316 11.098680 1.344338
v 0.176201 8.972378 1.039569
v 0.456221 11.107778 0.870090
v 0.601697 9.209480 1.095898
v 0.856159 8.914478 0.596499
v 0.677031 12.170482 0.849826
v 1.181828 11.600480 0.574279
v 0.674506 13.444476 1.110038
v 1.250548 12.678280 0.484650
v 1.229478 12.510878 -0.050259
v 1.445249 16.282980 0.109162
v 1.455757 15.281779 0.120985
v 1.636729 14.973682 0.250190
v 1.283309 14.611682 0.826717
v 1.493417 15.391080 -0.760918
v 1.481838 13.488981 0.155961
v 0.929027 13.696679 0.505950
v 0.977820 13.418880 -0.739877
v 1.255859 12.335980 -0.677664
v 0.443120 12.655280 -0.721904
v 0.522162 11.516980 -0.752213
v 0.959360 11.119380 -0.607489
v 0.576648 9.200881 -0.959195
v 0.910106 8.986177 -0.493702
v 0.889192 8.777580 -0.050665
v 0.973403 11.407880 -0.042009
v -0.243371 9.267178 -0.829813
v -1.532233 15.770778 -0.830438
v -1.638161 16.072779 0.650121
v 1.070629 15.804281 -1.248992
v 0.188340 15.955180 1.616898
v 1.633509 15.967677 0.833247
vn -0.7421 0.4920 0.4552
vn -0.8703 0.4920 -0.0232
vn -0.8703 0.4920 0.0232
vn -0.7652 0.4921 0.4151
vn -0.8703 0.4921 -0.0232
vn -0.4151 0.4920 0.7652
vn -0.4151 0.4921 0.7652
vn -0.4552 0.4921 0.7421
vn -0.7653 0.4921 0.4150
vn 0.0231 0.4921 0.8703
vn -0.4150 0.4920 0.7653
vn 0.0232 0.4920 0.8703
vn -0.0232 0.4921 0.8703
vn 0.4552 0.4921 0.7420
vn -0.0232 0.4920 0.8703
vn 0.0232 0.4921 0.8703
vn 0.4552 0.4921 0.7421
vn 0.4151 0.4920 0.7652
vn -0.0232 0.4921 0.8702
vn 0.7652 0.4921 0.4151
vn 0.4151 0.4921 0.7652
vn 0.4552 0.4920 0.7421
vn 0.7652 0.4920 0.4151
vn 0.7421 0.4921 0.4552
vn 0.4150 0.4921 0.7653
vn 0.8703 0.4920 -0.0232
vn 0.7653 0.4921 0.4150
vn 0.8703 0.4920 0.0232
vn 0.7421 0.4920 0.4552
vn 0.7421 0.4920 -0.4552
vn 0.7421 0.4921 -0.4552
vn 0.7652 0.4921 -0.4151
vn 0.8702 0.4921 0.0232
vn 0.4151 0.4920 -0.7652
vn 0.4151 0.4921 -0.7652
vn 0.4552 0.4920 -0.7421
vn 0.7653 0.4921 -0.4150
vn -0.0232 0.4920 -0.8703
vn 0.4150 0.4921 -0.7653
vn 0.0232 0.4920 -0.8703
vn 0.4552 0.4921 -0.7421
vn -0.4552 0.4920 -0.7421
vn -0.4552 0.4921 -0.7421
vn -0.4151 0.4921 -0.7652
vn -0.7652 0.4920 -0.4151
vn -0.7652 0.4921 -0.4151
vn -0.7421 0.4921 -0.4552
vn -0.4150 0.4921 -0.7653
vn -0.7653 0.4920 -0.4150
vn -0.7421 0.4920 -0.4552
vn -0.7653 0.4920 0.4151
vn -0.9960 -0.0000 0.0890
vn -0.8181 -0.0001 0.5751
vn -0.4552 0.4920 0.7421
vn -0.8181 -0.0000 0.5751
vn -0.4210 -0.0000 0.9071
vn 0.0890 -0.0000 0.9960
vn 0.4151 0.4920 0.7653
vn 0.5751 -0.0000 0.8181
vn 0.9071 -0.0000 0.4210
vn 0.9960 -0.0000 -0.0890
vn 0.7653 0.4920 -0.4151
vn 0.8181 -0.0000 -0.5751
vn 0.4210 -0.0000 -0.9071
vn -0.0890 -0.0000 -0.9960
vn -0.4151 0.4920 -0.7653
vn -0.5751 -0.0000 -0.8181
vn -0.9071 -0.0000 -0.4210
vn -0.9996 0.0273 -0.0001
vn -0.8829 -0.4691 0.0208
vn -0.7750 -0.4692 -0.4235
vn -0.7750 -0.4691 -0.4235
vn -0.8657 0.0273 -0.4999
vn -0.4594 -0.4692 -0.7542
vn -0.4594 -0.4691 -0.7542
vn -0.4998 0.0273 -0.8657
vn -0.0208 -0.4692 -0.8829
vn -0.0207 -0.4691 -0.8829
vn 0.0001 0.0273 -0.9996
vn -0.0208 -0.4691 -0.8829
vn 0.4235 -0.4692 -0.7750
vn -0.9627 0.2564 -0.0860
vn -0.7908 0.2564 -0.5558
vn -0.4997 0.0273 -0.8657
vn -0.4069 0.2564 -0.8767
vn 0.0860 0.2564 -0.9627
vn 0.4235 -0.4691 -0.7750
vn 0.4999 0.0273 -0.8657
vn 0.4998 0.0273 -0.8657
vn 0.7542 -0.4692 -0.4594
vn 0.7542 -0.4691 -0.4594
vn 0.8657 0.0273 -0.4998
vn 0.8829 -0.4692 -0.0208
vn -0.7114 0.6203 -0.3302
vn -0.4510 0.6204 -0.6417
vn -0.4510 0.6203 -0.6417
vn -0.4069 0.2564 -0.8768
vn -0.0698 0.6204 -0.7812
vn 0.3302 0.6204 -0.7114
vn 0.5558 0.2564 -0.7908
vn 0.8657 0.0273 -0.4997
vn 0.3302 0.6203 -0.7114
vn -0.7114 0.6204 -0.3302
vn -0.7812 0.6204 0.0698
vn -0.7558 0.6547 0.0092
vn -0.7812 0.6203 0.0698
vn -0.6591 0.6547 -0.3700
vn -0.3858 0.6547 -0.6500
vn -0.0092 0.6547 -0.7558
vn -0.0698 0.6203 -0.7812
vn 0.3700 0.6547 -0.6591
vn 0.6417 0.6204 -0.4510
vn 0.8767 0.2564 -0.4069
vn 0.6417 0.6203 -0.4510
vn -0.9044 0.4268 0.0040
vn -0.7852 0.4268 -0.4487
vn -0.6592 0.6547 -0.3699
vn -0.3859 0.6547 -0.6500
vn -0.9043 0.4268 0.0040
vn -0.4556 0.4268 -0.7812
vn -0.0091 0.6547 -0.7558
vn -0.0040 0.4268 -0.9044
vn -0.0040 0.4268 -0.9043
vn 0.4487 0.4268 -0.7852
vn 0.6500 0.6547 -0.3859
vn 0.3700 0.6547 -0.6592
vn 0.6500 0.6547 -0.3858
vn 0.7812 0.6204 -0.0698
vn -0.9590 0.2835 0.0010
vn -0.8310 0.2834 -0.4786
vn -0.9590 0.2834 0.0010
vn -0.8310 0.2835 -0.4786
vn -0.4804 0.2835 -0.8300
vn -0.0010 0.2835 -0.9590
vn -0.4804 0.2834 -0.8300
vn -0.0010 0.2834 -0.9590
vn 0.4786 0.2835 -0.8310
vn 0.7812 0.4268 -0.4556
vn 0.7558 0.6547 -0.0092
vn -0.9886 0.1216 -0.0883
vn -0.8120 0.1216 -0.5708
vn -0.8121 0.1216 -0.5708
vn -0.4178 0.1216 -0.9003
vn -0.4179 0.1216 -0.9003
vn 0.0883 0.1217 -0.9886
vn 0.0883 0.1216 -0.9886
vn 0.5708 0.1217 -0.8120
vn 0.4786 0.2834 -0.8310
vn 0.8300 0.2835 -0.4804
vn 0.5708 0.1216 -0.8120
vn 0.9044 0.4268 -0.0040
vn 0.8300 0.2834 -0.4804
vn 0.9043 0.4268 -0.0040
vn -0.8897 -0.1948 -0.4129
vn -0.5641 -0.1948 -0.8024
vn -0.0873 -0.1949 -0.9769
vn -0.5640 -0.1948 -0.8024
vn -0.0872 -0.1948 -0.9769
vn 0.4129 -0.1948 -0.8897
vn 0.5708 0.1216 -0.8121
vn -0.0872 -0.1948 -0.9770
vn 0.8024 -0.1948 -0.5640
vn 0.8024 -0.1948 -0.5641
vn 0.9003 0.1216 -0.4179
vn 0.9003 0.1216 -0.4178
vn -0.8897 -0.1949 -0.4129
vn -0.9769 -0.1948 0.0872
vn -0.7033 -0.7105 -0.0254
vn -0.9770 -0.1948 0.0872
vn -0.5964 -0.7105 -0.3737
vn -0.5964 -0.7104 -0.3736
vn -0.3296 -0.7105 -0.6218
vn -0.5964 -0.7105 -0.3736
vn -0.0873 -0.1948 -0.9769
vn 0.0254 -0.7105 -0.7033
vn -0.0873 -0.1948 -0.9770
vn -0.3297 -0.7104 -0.6218
vn 0.3736 -0.7104 -0.5964
vn 0.3736 -0.7105 -0.5964
vn 0.0254 -0.7104 -0.7033
vn 0.6218 -0.7104 -0.3297
vn 0.9769 -0.1949 -0.0873
vn 0.9769 -0.1948 -0.0873
vn 0.6218 -0.7105 -0.3296
vn -0.1945 -0.9807 -0.0174
vn -0.1598 -0.9807 -0.1123
vn -0.1946 -0.9807 -0.0174
vn -0.3297 -0.7105 -0.6217
vn -0.0822 -0.9807 -0.1772
vn 0.0174 -0.9807 -0.1946
vn 0.6217 -0.7105 -0.3297
vn 0.1123 -0.9807 -0.1598
vn 0.0174 -0.9807 -0.1945
vn 0.1772 -0.9807 -0.0822
vn 0.7033 -0.7104 0.0254
vn 0.7033 -0.7105 0.0254
vn 0.3761 -0.9100 0.1745
vn 0.2384 -0.9100 0.3392
vn 0.2385 -0.9100 0.3392
vn 0.0368 -0.9100 0.4130
vn 0.0369 -0.9100 0.4130
vn -0.1745 -0.9100 0.3761
vn -0.3392 -0.9100 0.2384
vn -0.3392 -0.9100 0.2385
vn 0.4130 -0.9100 -0.0369
vn 0.3761 -0.9100 0.1746
vn 0.6736 -0.7390 0.0078
vn 0.5795 -0.7390 0.3436
vn 0.6737 -0.7390 0.0078
vn 0.3301 -0.7390 0.5873
vn 0.3300 -0.7390 0.5873
vn -0.1746 -0.9100 0.3761
vn -0.0078 -0.7390 0.6737
vn -0.0078 -0.7390 0.6736
vn -0.3436 -0.7390 0.5795
vn -0.5873 -0.7390 0.3300
vn -0.4130 -0.9100 0.0368
vn -0.4130 -0.9100 0.0369
vn 0.3623 -0.9315 0.0324
vn 0.2976 -0.9315 0.2092
vn 0.1531 -0.9315 0.3299
vn -0.0324 -0.9315 0.3623
vn -0.2092 -0.9315 0.2976
vn -0.5873 -0.7390 0.3301
vn -0.3299 -0.9315 0.1531
vn -0.6736 -0.7390 -0.0078
vn -0.6737 -0.7390 -0.0078
vn -0.3761 -0.9100 -0.1746
vn 0.1946 -0.9807 0.0174
vn -0.3761 -0.9100 -0.1745
vn 0.5964 -0.7105 0.3736
vn 0.1945 -0.9807 0.0174
vn 0.8897 -0.1948 0.4129
vn 0.9770 -0.1948 -0.0872
vn -0.3623 -0.9315 -0.0324
vn -0.5795 -0.7390 -0.3436
vn -0.2384 -0.9100 -0.3392
vn 0.1598 -0.9807 0.1123
vn 0.3297 -0.7104 0.6218
vn 0.5640 -0.1948 0.8024
vn 0.3296 -0.7105 0.6218
vn 0.5964 -0.7104 0.3736
vn -0.2976 -0.9315 -0.2092
vn -0.2385 -0.9100 -0.3392
vn -0.3301 -0.7390 -0.5873
vn -0.3300 -0.7390 -0.5873
vn -0.0369 -0.9100 -0.4130
vn 0.0822 -0.9807 0.1772
vn 0.3296 -0.7104 0.6218
vn -0.0368 -0.9100 -0.4130
vn -0.0254 -0.7104 0.7033
vn 0.3297 -0.7104 0.6217
vn 0.0873 -0.1948 0.9770
vn 0.0873 -0.1948 0.9769
vn -0.1531 -0.9315 -0.3299
vn 0.0078 -0.7390 -0.6736
vn 0.0078 -0.7390 -0.6737
vn 0.1746 -0.9100 -0.3761
vn -0.0174 -0.9807 0.1946
vn 0.1745 -0.9100 -0.3761
vn -0.3736 -0.7104 0.5964
vn -0.0174 -0.9807 0.1945
vn -0.4129 -0.1948 0.8897
vn -0.3736 -0.7105 0.5964
vn 0.0324 -0.9315 -0.3623
vn 0.3436 -0.7390 -0.5795
vn 0.3392 -0.9100 -0.2384
vn -0.1123 -0.9807 0.1598
vn 0.3392 -0.9100 -0.2385
vn -0.6217 -0.7105 0.3297
vn -0.8024 -0.1948 0.5640
vn -0.8024 -0.1948 0.5641
vn -0.6218 -0.7104 0.3297
vn 0.2092 -0.9315 -0.2976
vn 0.5873 -0.7390 -0.3300
vn -0.1772 -0.9807 0.0822
vn -0.6217 -0.7105 0.3296
vn 0.4130 -0.9100 -0.0368
vn -0.7033 -0.7105 -0.0253
vn -0.6217 -0.7104 0.3297
vn -0.9769 -0.1949 0.0873
vn -0.9769 -0.1948 0.0873
vn 0.5873 -0.7390 -0.3301
vn 0.3299 -0.9315 -0.1531
vn -0.0000 1.0000 -0.0000
vn -0.7750 -0.4692 0.4234
vn -0.8703 0.4921 0.0232
vn -0.8829 -0.4691 -0.0208
vn -0.7750 -0.4691 0.4235
vn -0.4594 -0.4692 0.7542
vn -0.4594 -0.4691 0.7542
vn -0.0208 -0.4692 0.8829
vn -0.4150 0.4921 0.7653
vn -0.0207 -0.4691 0.8829
vn 0.0231 0.4920 0.8703
vn -0.4151 0.4920 0.7653
vn 0.4234 -0.4692 0.7750
vn 0.4235 -0.4691 0.7750
vn 0.7542 -0.4692 0.4594
vn 0.7542 -0.4691 0.4594
vn 0.8829 -0.4691 0.0208
vn 0.7653 0.4920 0.4151
vn 0.7750 -0.4692 -0.4234
vn 0.8703 0.4921 -0.0232
vn 0.7750 -0.4691 -0.4235
vn 0.4594 -0.4692 -0.7542
vn 0.7420 0.4921 -0.4552
vn 0.4594 -0.4691 -0.7542
vn 0.0208 -0.4691 -0.8829
vn 0.4151 0.4920 -0.7653
vn -0.4234 -0.4692 -0.7750
vn -0.0232 0.4921 -0.8703
vn -0.4235 -0.4691 -0.7750
vn -0.7542 -0.4692 -0.4594
vn -0.7542 -0.4691 -0.4594
vn -0.7653 0.4921 -0.4150
vn -0.7653 0.4920 -0.4151
vn -0.7542 -0.4692 0.4595
vn -0.8829 -0.4692 -0.0208
vn -0.8829 -0.4691 0.0207
vn -0.7542 -0.4691 0.4594
vn -0.7750 -0.4691 0.4234
vn -0.4235 -0.4692 0.7750
vn -0.7542 -0.4691 0.4595
vn -0.4235 -0.4691 0.7750
vn -0.4595 -0.4691 0.7542
vn 0.0207 -0.4691 0.8829
vn 0.0208 -0.4692 0.8829
vn -0.0208 -0.4691 0.8829
vn 0.4594 -0.4691 0.7542
vn 0.4234 -0.4691 0.7750
vn 0.7750 -0.4691 0.4235
vn 0.4594 -0.4692 0.7542
vn 0.7750 -0.4692 0.4235
vn 0.8829 -0.4691 -0.0207
vn 0.7542 -0.4691 0.4595
vn 0.7750 -0.4691 0.4234
vn 0.8829 -0.4691 -0.0208
vn 0.7542 -0.4692 -0.4595
vn 0.8829 -0.4692 0.0208
vn 0.7750 -0.4691 -0.4234
vn 0.7542 -0.4691 -0.4595
vn 0.4595 -0.4691 -0.7542
vn 0.4234 -0.4692 -0.7750
vn 0.0207 -0.4691 -0.8829
vn -0.4595 -0.4691 -0.7542
vn -0.4234 -0.4691 -0.7750
vn -0.7542 -0.4691 -0.4595
vn -0.7750 -0.4691 -0.4234
vn 0.9071 -0.0000 -0.4210
vn 0.9960 -0.0000 0.0890
vn 0.8181 -0.0000 -0.5750
vn 0.5751 -0.0000 -0.8181
vn 0.0890 -0.0000 -0.9960
vn -0.4210 -0.0000 -0.9071
vn -0.5750 -0.0000 -0.8181
vn -0.8181 -0.0000 -0.5751
vn -0.9071 -0.0000 -0.4209
vn -0.9960 -0.0000 -0.0889
vn -0.9960 -0.0000 0.0889
vn -0.9071 -0.0000 0.4210
vn -0.9960 -0.0000 -0.0890
vn -0.8181 -0.0000 0.5750
vn -0.5751 -0.0000 0.8181
vn -0.4209 -0.0000 0.9071
vn -0.0889 -0.0000 0.9960
vn 0.0889 -0.0000 0.9960
vn 0.4210 -0.0000 0.9071
vn -0.0890 -0.0000 0.9960
vn 0.8181 -0.0000 0.5751
vn 0.8181 -0.0000 0.5750
vn 0.9960 -0.0000 -0.0889
vn -0.9003 0.1216 0.4178
vn -0.8024 -0.1949 0.5640
vn -0.5708 0.1216 0.8120
vn -0.9003 0.1216 0.4179
vn 0.0872 -0.1948 0.9769
vn -0.0883 0.1216 0.9886
vn -0.5708 0.1216 0.8121
vn 0.4179 0.1216 0.9003
vn 0.4178 0.1216 0.9003
vn -0.9886 0.1217 -0.0883
vn -0.8300 0.2835 0.4804
vn -0.4786 0.2835 0.8310
vn 0.0010 0.2835 0.9590
vn -0.0883 0.1217 0.9886
vn 0.4804 0.2835 0.8300
vn 0.0010 0.2834 0.9590
vn 0.8120 0.1216 0.5708
vn 0.5641 -0.1948 0.8024
vn -0.8300 0.2834 0.4804
vn -0.4786 0.2834 0.8310
vn -0.7812 0.4268 0.4556
vn -0.4487 0.4268 0.7852
vn 0.4804 0.2834 0.8300
vn 0.0040 0.4268 0.9043
vn 0.0040 0.4268 0.9044
vn 0.4556 0.4268 0.7812
vn 0.8310 0.2834 0.4786
vn 0.8310 0.2835 0.4786
vn 0.9886 0.1216 0.0883
vn 0.8121 0.1216 0.5708
vn 0.8897 -0.1949 0.4129
vn 0.9769 -0.1948 -0.0872
vn -0.6500 0.6547 0.3859
vn -0.3700 0.6547 0.6591
vn -0.3700 0.6547 0.6592
vn 0.0092 0.6547 0.7558
vn 0.3859 0.6547 0.6500
vn 0.0091 0.6547 0.7558
vn 0.7852 0.4268 0.4487
vn 0.9590 0.2834 -0.0010
vn 0.9590 0.2835 -0.0010
vn 0.9886 0.1217 0.0883
vn -0.6500 0.6547 0.3858
vn -0.6417 0.6204 0.4510
vn -0.6417 0.6203 0.4510
vn -0.3302 0.6203 0.7114
vn -0.3302 0.6204 0.7114
vn 0.3858 0.6547 0.6500
vn 0.0698 0.6204 0.7812
vn 0.0698 0.6203 0.7812
vn 0.4510 0.6203 0.6417
vn 0.6591 0.6547 0.3700
vn 0.6592 0.6547 0.3699
vn 0.4510 0.6204 0.6417
vn -0.8767 0.2564 0.4069
vn -0.5558 0.2564 0.7908
vn -0.0860 0.2564 0.9627
vn 0.4069 0.2564 0.8767
vn 0.4069 0.2564 0.8768
vn 0.7908 0.2564 0.5558
vn 0.7114 0.6204 0.3302
vn 0.7114 0.6203 0.3302
vn 0.7812 0.6203 -0.0698
vn -0.8768 0.2564 0.4069
vn -0.9996 0.0273 -0.0000
vn -0.8657 0.0273 0.4998
vn -0.8657 0.0273 0.4997
vn -0.4999 0.0273 0.8657
vn -0.0001 0.0273 0.9996
vn -0.4998 0.0273 0.8657
vn 0.4998 0.0273 0.8657
vn 0.4997 0.0273 0.8657
vn 0.8657 0.0273 0.4999
vn 0.9627 0.2564 0.0860
vn 0.8768 0.2564 -0.4069
vn -0.8829 -0.4692 0.0208
vn -0.7542 -0.4692 0.4594
vn 0.0208 -0.4691 0.8829
vn 0.9996 0.0273 0.0001
vn 0.9996 0.0273 -0.0000
vn -0.0000 -1.0000 -0.0000
vn -0.1531 -0.9315 -0.3300
vn -0.3300 -0.9315 0.1531
vn 0.1531 -0.9315 0.3300
vn 0.3300 -0.9315 -0.1531
vn 0.1471 -0.6685 0.7290
vn -0.0017 -0.1827 0.9832
vn -0.3027 -0.9290 0.2129
vn 0.2016 0.0217 0.9792
vn 0.5326 0.0349 0.8457
vn -0.4649 -0.0295 0.8849
vn -0.4649 -0.0294 0.8849
vn -0.0018 -0.1827 0.9832
vn -0.4997 0.0567 0.8643
vn -0.0217 0.4511 0.8922
vn -0.4998 0.0567 0.8643
vn -0.0017 -0.1828 0.9832
vn 0.3208 -0.3989 0.8591
vn 0.3208 -0.3989 0.8590
vn 0.9322 -0.0901 0.3506
vn 0.1471 -0.6684 0.7291
vn -0.3849 -0.2363 0.8922
vn -0.9486 -0.0034 0.3164
vn -0.9486 -0.0033 0.3163
vn -0.3849 -0.2364 0.8922
vn -0.9293 -0.1245 0.3477
vn -0.4191 0.6588 0.6247
vn -0.9293 -0.1244 0.3477
vn 0.3524 -0.2208 0.9094
vn 0.5326 0.0348 0.8457
vn 0.3524 -0.2209 0.9094
vn 0.2743 -0.1999 0.9407
vn -0.5141 -0.0961 0.8523
vn -0.9432 0.0688 0.3250
vn -0.9486 -0.0033 0.3164
vn -0.9845 -0.0973 -0.1460
vn -0.9689 -0.2435 -0.0433
vn -0.9486 -0.0034 0.3163
vn -0.9690 -0.2434 -0.0434
vn -0.4192 0.6588 0.6247
vn -0.8980 -0.3728 0.2336
vn -0.9348 -0.3258 0.1411
vn -0.9689 -0.2434 -0.0433
vn -0.9859 -0.1585 -0.0540
vn -0.8792 -0.3136 -0.3587
vn -0.7751 -0.6031 -0.1885
vn -0.9689 -0.2434 -0.0434
vn -0.9348 -0.3259 0.1411
vn -0.6703 -0.3184 -0.6703
vn -0.8792 -0.3137 -0.3587
vn -0.3674 -0.2109 -0.9059
vn 0.0885 0.8766 0.4730
vn -0.0767 0.9969 0.0180
vn 0.0909 0.7929 -0.6026
vn -0.6703 -0.3185 -0.6703
vn -0.9089 -0.3461 -0.2325
vn -0.9089 -0.3461 -0.2324
vn -0.7904 -0.1833 -0.5845
vn -0.1105 -0.2287 -0.9672
vn -0.3674 -0.2109 -0.9058
vn 0.0909 0.7928 -0.6026
vn 0.4305 -0.1384 -0.8919
vn 0.4304 -0.1384 -0.8919
vn 0.4581 0.4373 -0.7739
vn 0.8660 -0.2150 -0.4515
vn 0.9468 0.0721 -0.3135
vn -0.9080 -0.0730 -0.4125
vn -0.9689 -0.2435 -0.0434
vn -0.7809 -0.2307 -0.5805
vn -0.0679 -0.2192 -0.9733
vn 0.4696 -0.2286 -0.8528
vn 0.4697 -0.2286 -0.8528
vn 0.7484 -0.2034 -0.6313
vn 0.4697 -0.2285 -0.8528
vn -0.9896 0.0894 -0.1131
vn -0.7508 0.1621 -0.6404
vn -0.4444 0.0817 -0.8921
vn -0.9080 -0.0731 -0.4125
vn -0.4444 0.0816 -0.8921
vn -0.7507 0.1622 -0.6404
vn 0.0645 -0.1665 -0.9839
vn -0.0852 -0.4049 -0.9104
vn -0.0679 -0.2191 -0.9733
vn -0.0852 -0.4050 -0.9103
vn 0.7485 -0.2034 -0.6312
vn 0.5122 -0.1550 -0.8448
vn 0.4697 -0.2286 -0.8527
vn 0.5122 -0.1549 -0.8448
vn 0.7478 -0.2035 -0.6320
vn 0.7673 -0.0682 -0.6376
vn -0.9177 0.0008 0.3972
vn -0.5141 -0.0962 0.8523
vn -0.9430 0.0687 0.3257
vn -0.7078 0.0499 0.7046
vn -0.9751 0.0266 -0.2203
vn -0.7508 0.1622 -0.6404
vn -0.9751 0.0267 -0.2203
vn -0.9751 0.0266 -0.2204
vn -0.8708 -0.0387 -0.4902
vn -0.3622 0.0880 -0.9279
vn -0.3622 0.0880 -0.9280
vn -0.8708 -0.0388 -0.4902
vn 0.0317 0.0672 -0.9972
vn 0.0316 0.0672 -0.9972
vn -0.5251 -0.0791 0.8474
vn -0.9177 0.0007 0.3972
vn -0.7078 0.0500 0.7046
vn 0.2743 -0.1999 0.9406
vn -0.4287 0.0026 0.9034
vn -0.9751 0.0267 -0.2204
vn -0.9224 -0.0779 0.3783
vn -0.9224 -0.0780 0.3783
vn -0.9164 -0.2051 -0.3437
vn -0.9634 -0.0999 -0.2488
vn -0.7995 -0.0849 -0.5946
vn -0.7995 -0.0850 -0.5946
vn -0.2265 0.0725 0.9713
vn -0.8350 0.3087 0.4554
vn -0.4287 0.0027 0.9034
vn -0.4288 0.0026 0.9034
vn 0.0852 -0.0270 0.9960
vn 0.4538 0.0128 0.8910
vn 0.4538 0.0129 0.8910
vn 0.4625 0.1396 0.8756
vn 0.7070 0.0408 0.7061
vn 0.4537 0.0128 0.8910
vn 0.3922 -0.0867 0.9158
vn 0.8886 -0.1000 0.4476
vn 0.8887 -0.1000 0.4475
vn 0.3923 -0.0866 0.9158
vn 0.9904 -0.0761 -0.1154
vn 0.9882 -0.1454 -0.0489
vn 0.9882 -0.1453 -0.0489
vn 0.9904 -0.0761 -0.1155
vn 0.9992 -0.0284 0.0289
vn 0.5669 -0.1228 0.8146
vn 0.3525 -0.2208 0.9094
vn 0.5325 0.0348 0.8457
vn 0.8886 -0.1001 0.4476
vn 0.8401 -0.0034 0.5424
vn 0.3922 -0.0866 0.9158
vn 0.9878 -0.1114 -0.1090
vn 0.8886 -0.1001 0.4475
vn 0.9322 -0.0900 0.3507
vn 0.9171 -0.3926 0.0696
vn 0.9322 -0.0900 0.3506
vn 0.4968 0.8677 0.0164
vn 0.9170 -0.3927 0.0696
vn 0.9790 0.1531 0.1350
vn 0.9936 0.0857 0.0735
vn 0.9789 0.1531 0.1350
vn 0.7358 -0.1476 0.6609
vn 0.1472 -0.6685 0.7290
vn -0.3928 -0.8984 0.1966
vn 0.1471 -0.6685 0.7291
vn 0.7358 -0.1477 0.6609
vn 0.8660 -0.2150 -0.4514
vn 0.9790 0.1531 0.1349
vn 0.9936 0.0857 0.0736
vn 0.7484 -0.2033 -0.6312
vn 0.9817 -0.1507 0.1164
vn 0.7523 -0.1193 0.6479
vn 0.9817 -0.1508 0.1164
vn 0.7673 -0.0682 -0.6377
vn 0.7484 -0.2034 -0.6312
vn 0.9878 -0.1114 -0.1089
vn 0.9958 -0.0712 0.0578
vn -0.0852 -0.4050 -0.9104
vn 0.2745 -0.2406 -0.9310
vn 0.2745 -0.2407 -0.9310
vn 0.1082 -0.0425 -0.9932
vn 0.0645 -0.1666 -0.9839
vn 0.4021 0.0493 -0.9143
vn 0.8778 -0.0708 -0.4737
vn 0.8778 -0.0707 -0.4737
vn 0.4571 -0.0130 -0.8893
vn 0.4572 -0.0130 -0.8893
vn 0.4572 -0.0131 -0.8893
vn 0.9542 -0.0378 -0.2967
vn 0.8778 -0.0707 -0.4738
vn 0.9992 -0.0284 0.0288
vn 0.9542 -0.0379 -0.2967
vn 0.9882 -0.1453 -0.0490
vn 0.9882 -0.1454 -0.0490
vn 0.0704 -0.0575 -0.9959
vn 0.0704 -0.0576 -0.9959
vn 0.6912 0.1632 -0.7040
vn -0.0768 0.9969 0.0180
vn -0.1153 0.9886 -0.0971
vn 0.4968 0.8677 0.0163
vn -0.1792 0.9661 0.1859
vn 0.9469 0.0722 -0.3135
vn 0.4582 0.4373 -0.7739
vn 0.4967 0.8677 0.0163
vn -0.4191 0.6588 0.6248
vn 0.1842 0.9220 0.3407
vn 0.2069 0.9156 0.3449
vt 0.179687 0.631067
vt 0.175563 0.623601
vt 0.179687 0.613452
vt 0.175563 0.639857
vt 0.179687 0.679191
vt 0.175563 0.684266
vt 0.179687 0.744931
vt 0.175563 0.744931
vt 0.179687 0.810670
vt 0.175563 0.805596
vt 0.179687 0.858795
vt 0.175563 0.850006
vt 0.179687 0.876410
vt 0.175563 0.866261
vt 0.179687 0.679191
vt 0.155357 0.623601
vt 0.155357 0.639857
vt 0.155357 0.684266
vt 0.155357 0.744931
vt 0.155357 0.805596
vt 0.155357 0.850006
vt 0.155357 0.866261
vt 0.414852 0.623601
vt 0.239903 0.623601
vt 0.239903 0.639857
vt 0.414852 0.639857
vt 0.239903 0.684266
vt 0.414852 0.684266
vt 0.239903 0.744931
vt 0.414852 0.744931
vt 0.239903 0.805596
vt 0.568708 0.610767
vt 0.568708 0.628741
vt 0.568708 0.677849
vt 0.568708 0.744931
vt 0.414852 0.805596
vt 0.239903 0.850006
vt 0.414852 0.850006
vt 0.239903 0.866261
vt 0.603349 0.605777
vt 0.603349 0.664590
vt 0.603349 0.744931
vt 0.603349 0.825272
vt 0.568708 0.812013
vt 0.603349 0.584249
vt 0.638462 0.520067
vt 0.638462 0.550193
vt 0.638462 0.632499
vt 0.638462 0.744931
vt 0.638462 0.857363
vt 0.603349 0.884085
vt 0.568708 0.861121
vt 0.687116 0.474403
vt 0.687116 0.510647
vt 0.687116 0.609667
vt 0.687116 0.744931
vt 0.687116 0.880195
vt 0.638462 0.939669
vt 0.603349 0.905613
vt 0.735776 0.448938
vt 0.735776 0.488594
vt 0.735776 0.596934
vt 0.735776 0.744931
vt 0.735776 0.892928
vt 0.687116 0.979215
vt 0.638462 0.969796
vt 0.784431 0.430394
vt 0.784431 0.472534
vt 0.784431 0.587662
vt 0.784431 0.744931
vt 0.784431 0.902198
vt 0.735776 1.001268
vt 0.687116 1.015459
vt 0.038437 0.638270
vt 0.805803 0.614113
vt 0.805803 0.638270
vt 0.038437 0.704269
vt 0.805803 0.704269
vt 0.038437 0.794425
vt 0.805803 0.794425
vt 0.038437 0.884580
vt 0.805803 0.884580
vt 0.038437 0.950579
vt 0.805803 0.950579
vt 0.784431 1.017328
vt 0.038437 0.614113
vt 0.500443 0.008179
vt 0.547284 -0.000000
vt 0.546865 0.005489
vt 0.105436 0.834988
vt 0.059776 0.841395
vt 0.058621 0.836001
vt 0.501588 0.002648
vt 0.105858 0.840398
vt 0.159493 0.830387
vt 0.206308 0.823431
vt 0.159070 0.835869
vt 0.400417 0.835375
vt 0.355140 0.837617
vt 0.353995 0.832071
vt 0.205153 0.829021
vt 0.400836 0.840869
vt 0.038437 0.974736
vt 0.454021 0.835729
vt 0.818697 0.034373
vt 0.771642 0.005531
vt 0.772661 0.000000
vt 0.815912 0.038586
vt 0.845276 0.098172
vt 0.845275 0.174304
vt 0.841470 0.099938
vt 0.818697 0.242369
vt 0.841470 0.173149
vt 0.772661 0.284127
vt 0.815911 0.238603
vt 0.771642 0.278760
vt 0.719504 0.288391
vt 0.453601 0.841218
vt 0.802083 0.059500
vt 0.822580 0.108703
vt 0.822580 0.167415
vt 0.802083 0.219906
vt 0.766580 0.252111
vt 0.766580 0.032992
vt 0.763868 0.047705
vt 0.794674 0.070706
vt 0.812459 0.113399
vt 0.531607 0.893995
vt 0.518937 0.843631
vt 0.531607 0.841218
vt 0.812459 0.164343
vt 0.518937 0.889425
vt 0.794674 0.209889
vt 0.763868 0.237833
vt 0.725586 0.255399
vt 0.531607 0.841218
vt 0.544413 0.889899
vt 0.531607 0.893438
vt 0.759943 0.069000
vt 0.783950 0.086924
vt 0.797810 0.120195
vt 0.797810 0.159897
vt 0.783950 0.195392
vt 0.759943 0.217168
vt 0.544413 0.844588
vt 0.728297 0.240686
vt 0.690083 0.228891
vt 0.720524 0.282860
vt 0.673469 0.254019
vt 0.500443 0.833039
vt 0.499297 0.838570
vt 0.732223 0.219392
vt 0.697492 0.217686
vt 0.669586 0.179689
vt 0.676254 0.249806
vt 0.646890 0.190219
vt 0.307180 0.006406
vt 0.306757 0.000997
vt 0.352840 -0.000000
vt 0.353995 0.005394
vt 0.708216 0.201467
vt 0.679707 0.174993
vt 0.506266 0.841218
vt 0.518936 0.891582
vt 0.506266 0.893995
vt 0.650695 0.188454
vt 0.669586 0.120976
vt 0.646890 0.114087
vt 0.253123 0.011008
vt 0.253545 0.005526
vt 0.694355 0.168196
vt 0.518936 0.845788
vt 0.679707 0.124048
vt 0.690083 0.068485
vt 0.650695 0.115242
vt 0.673469 0.046023
vt 0.206308 0.017964
vt 0.207463 0.012374
vt 0.694355 0.128494
vt 0.697492 0.078502
vt 0.725586 0.036281
vt 0.676255 0.049789
vt 0.719504 0.004264
vt 0.600468 0.005843
vt 0.645745 0.003601
vt 0.646890 0.009147
vt 0.600049 0.000349
vt 0.708216 0.093000
vt 0.728298 0.050558
vt 0.557219 0.893438
vt 0.544413 0.844757
vt 0.557219 0.841218
vt 0.720524 0.009632
vt 0.732223 0.071223
vt 0.544413 0.890068
vt 0.155357 0.640259
vt 0.155357 0.654282
vt 0.155357 0.692595
vt 0.155357 0.797267
vt 0.155357 0.835580
vt 0.155357 0.849603
vt 0.235297 0.631067
vt 0.235297 0.613452
vt 0.235297 0.679191
vt 0.235297 0.744931
vt 0.235297 0.810670
vt 0.235297 0.858795
vt 0.235297 0.876410
vt 0.235297 0.679191
vt 0.186978 0.654282
vt 0.186978 0.640259
vt 0.186978 0.692595
vt 0.186978 0.744931
vt 0.186978 0.797267
vt 0.186978 0.835580
vt 0.186978 0.849603
vt 0.131609 -0.082749
vt 0.170697 -0.082749
vt 0.170697 0.723104
vt 0.236485 -0.047593
vt 0.310703 -0.047593
vt 0.310703 0.758260
vt 0.236485 0.758260
vt 0.412087 -0.047593
vt 0.412087 0.758260
vt 0.513471 0.758260
vt 0.513471 -0.047593
vt 0.131609 0.723104
vt 0.735776 0.488594
vt 0.735776 0.596934
vt 0.784431 0.902200
vt 0.587689 0.758260
vt 0.587688 -0.047593
vt 0.687116 0.510647
vt 0.687116 0.880195
vt 0.735776 1.001268
vt 0.614854 0.758260
vt 0.614854 -0.047593
vt 0.805803 0.974736
vt 0.784431 1.059468
vt 0.687116 0.979215
vt 0.735776 1.040924
vt 0.568708 0.879095
vt 0.414852 0.866261
vt 0.746083 0.144196
vt 0.888797 0.811854
vt 0.892793 0.818909
vt 0.902188 0.801205
vt 0.881161 0.750766
vt 0.890336 0.771798
vt 0.885668 0.877055
vt 0.883428 0.913556
vt 0.882081 0.895610
vt 0.917657 0.840988
vt 0.891254 0.652018
vt 0.905311 0.803618
vt 0.909449 0.838298
vt 0.895621 0.928722
vt 0.891826 0.669377
vt 0.905325 0.549959
vt 0.894712 0.548974
vt 0.915710 0.631627
vt 0.944647 0.662165
vt 0.945850 0.798140
vt 0.917808 0.927793
vt 0.944317 0.872579
vt 0.939758 0.944675
vt 0.970495 0.895158
vt 0.962480 0.811522
vt 0.979984 0.836151
vt 0.997301 0.933009
vt 0.989847 0.910681
vt 0.960758 0.781663
vt 0.976369 0.785790
vt 0.998972 0.813904
vt 0.991806 0.858545
vt 0.985380 0.899356
vt 0.968051 0.852215
vt 0.968998 0.900604
vt 0.958718 0.670517
vt 0.972129 0.644084
vt 0.991724 0.774836
vt 0.981224 0.774171
vt 0.971395 0.754170
vt 0.938807 0.534043
vt 0.966472 0.490097
vt 0.968594 0.523885
vt 0.971551 0.554624
vt 0.986372 0.617651
vt 0.983255 0.657707
vt 0.967456 0.629500
vt 0.914329 0.528212
vt 0.917119 0.393013
vt 0.945344 0.359156
vt 0.963481 0.379692
vt 0.974172 0.378726
vt 0.984925 0.388578
vt 0.912572 0.416307
vt 0.910110 0.101387
vt 0.915317 0.112835
vt 0.941800 0.156447
vt 0.956860 0.104337
vt 0.980550 0.144800
vt 0.893500 0.365447
vt 0.904505 0.125655
vt 0.910368 0.366944
vt 0.902483 0.152372
vt 0.920270 0.119556
vt 0.911007 0.486961
vt 0.920852 0.422872
vt 0.942789 0.401734
vt 0.943301 0.104739
vt 0.901652 0.630558
vt 0.923957 0.544662
vt 0.942997 0.526289
vt 0.911302 0.915744
vt 0.937033 0.952063
vt 0.936690 0.839000
vt 0.932119 0.804082
vt 0.911640 0.762636
vt 0.935585 0.636528
vt 0.923120 0.659634
vt 0.965327 0.507161
vt 0.966876 0.543259
vt 0.968042 0.414757
vt 0.962925 0.369718
vt 0.975584 0.153436
vt 0.959043 0.128731
vt 0.970977 0.160794
s 0
usemtl mtl_weapon_molotov_grenade
f 148/1/1 22/2/2 14/3/3
f 148/1/1 1/4/4 22/2/5
f 150/5/6 1/4/4 148/1/1
f 150/5/7 2/6/8 1/4/9
f 151/7/10 2/6/8 150/5/11
f 151/7/12 15/8/13 2/6/8
f 152/9/14 15/8/15 151/7/16
f 152/9/17 3/10/18 15/8/19
f 153/11/20 3/10/21 152/9/22
f 153/11/23 16/12/24 3/10/25
f 154/13/26 16/12/24 153/11/27
f 154/13/26 4/14/28 16/12/29
f 5/11/30 4/14/28 154/13/26
f 5/11/31 6/12/32 4/14/33
f 7/9/34 6/12/32 5/11/30
f 7/9/35 8/10/36 6/12/37
f 9/7/38 8/10/36 7/9/39
f 9/7/38 10/8/40 8/10/41
f 11/15/42 10/8/40 9/7/38
f 11/15/43 12/6/44 10/8/40
f 13/1/45 12/6/44 11/15/42
f 13/1/46 21/4/47 12/6/48
f 14/3/3 21/4/47 13/1/49
f 14/3/3 22/2/2 21/4/50
f 1/4/51 129/16/52 22/2/2
f 1/4/51 145/17/53 129/16/52
f 2/6/54 145/17/55 1/4/51
f 2/6/54 143/18/56 145/17/55
f 15/8/15 143/18/56 2/6/54
f 15/8/15 141/19/57 143/18/56
f 3/10/18 141/19/57 15/8/19
f 3/10/58 139/20/59 141/19/57
f 16/12/29 139/20/59 3/10/58
f 16/12/29 17/21/60 139/20/59
f 4/14/28 17/21/60 16/12/29
f 4/14/28 18/22/61 17/21/60
f 6/12/62 18/22/61 4/14/28
f 6/12/62 19/21/63 18/22/61
f 8/10/36 19/21/63 6/12/62
f 8/10/36 20/20/64 19/21/63
f 10/8/40 20/20/64 8/10/36
f 10/8/40 135/19/65 20/20/64
f 12/6/66 135/19/65 10/8/40
f 12/6/66 133/18/67 135/19/65
f 21/4/50 133/18/67 12/6/66
f 21/4/50 132/17/68 133/18/67
f 22/2/2 132/17/68 21/4/50
f 22/2/2 129/16/52 132/17/68
f 221/23/69 171/24/70 170/25/71
f 221/23/69 170/25/72 23/26/73
f 23/26/73 170/25/72 24/27/74
f 23/26/73 24/27/75 25/28/76
f 25/28/76 24/27/75 168/29/77
f 25/28/76 168/29/78 26/30/79
f 26/30/79 168/29/80 166/31/81
f 27/32/82 221/23/69 23/26/73
f 28/33/83 23/26/73 25/28/84
f 27/32/82 23/26/73 28/33/83
f 28/33/83 25/28/84 29/34/85
f 29/34/85 25/28/76 26/30/79
f 29/34/85 26/30/79 30/35/86
f 26/30/79 166/31/87 31/36/88
f 30/35/86 26/30/79 31/36/89
f 31/36/88 166/31/87 164/37/90
f 31/36/88 164/37/91 32/38/92
f 32/38/92 164/37/91 162/39/93
f 27/32/82 28/33/83 33/40/94
f 28/33/83 34/41/95 33/40/94
f 28/33/83 29/34/85 34/41/96
f 29/34/97 30/35/86 35/42/98
f 29/34/85 35/42/98 34/41/96
f 30/35/86 36/43/99 35/42/98
f 30/35/86 31/36/88 37/44/100
f 37/44/100 31/36/88 32/38/101
f 30/35/86 37/44/100 36/43/102
f 27/32/82 33/40/103 38/45/104
f 39/46/105 38/45/106 33/40/103
f 39/46/105 33/40/103 40/47/107
f 40/47/107 33/40/94 34/41/95
f 41/48/108 34/41/96 35/42/98
f 40/47/107 34/41/95 41/48/108
f 42/49/109 35/42/110 36/43/99
f 41/48/108 35/42/98 42/49/109
f 42/49/109 36/43/99 43/50/111
f 37/44/100 44/51/112 36/43/102
f 43/50/111 36/43/102 44/51/112
f 37/44/100 32/38/101 45/52/113
f 37/44/100 45/52/113 44/51/114
f 197/53/115 39/46/105 40/47/107
f 46/54/116 40/47/117 41/48/118
f 197/53/119 40/47/107 46/54/116
f 47/55/120 41/48/118 42/49/121
f 46/54/116 41/48/118 47/55/120
f 47/55/120 42/49/109 48/56/122
f 48/56/122 42/49/109 43/50/111
f 48/56/123 43/50/111 49/57/124
f 43/50/111 44/51/112 50/58/125
f 49/57/124 43/50/126 50/58/125
f 50/58/127 44/51/114 51/59/128
f 45/52/113 51/59/128 44/51/114
f 191/60/129 197/53/115 46/54/116
f 52/61/130 46/54/116 47/55/120
f 191/60/131 46/54/116 52/61/132
f 53/62/133 47/55/120 48/56/123
f 52/61/130 47/55/120 53/62/133
f 54/63/134 48/56/123 49/57/124
f 53/62/135 48/56/123 54/63/134
f 54/63/136 49/57/124 55/64/137
f 55/64/137 49/57/124 56/65/138
f 49/57/124 50/58/125 56/65/138
f 50/58/127 51/59/128 57/66/139
f 56/65/138 50/58/125 57/66/139
f 58/67/140 191/60/129 52/61/132
f 59/68/141 52/61/132 53/62/135
f 58/67/140 52/61/130 59/68/142
f 60/69/143 53/62/133 54/63/136
f 59/68/141 53/62/133 60/69/144
f 60/69/143 54/63/134 61/70/145
f 61/70/146 54/63/134 55/64/137
f 61/70/146 55/64/137 62/71/147
f 55/64/148 56/65/138 63/72/149
f 62/71/150 55/64/137 63/72/149
f 56/65/138 57/66/139 64/73/151
f 63/72/152 56/65/138 64/73/153
f 65/74/154 58/75/140 59/76/142
f 66/77/155 59/76/141 60/78/144
f 66/77/155 65/74/154 59/76/141
f 67/79/156 66/77/157 60/78/143
f 67/79/158 60/78/144 61/80/146
f 68/81/159 61/80/146 62/82/160
f 68/81/159 67/79/161 61/80/146
f 69/83/162 68/81/159 62/82/150
f 69/83/163 62/82/150 70/84/164
f 62/71/150 63/72/149 70/85/165
f 65/74/166 71/86/167 58/75/140
f 65/87/154 128/88/168 71/89/169
f 66/90/157 72/91/170 65/92/154
f 65/87/154 72/93/171 128/88/168
f 66/90/157 73/94/172 72/91/173
f 67/95/174 73/94/172 66/90/155
f 68/96/159 74/97/175 67/95/161
f 67/95/176 74/97/175 73/94/177
f 69/98/163 75/99/178 68/100/159
f 68/96/159 75/101/179 74/97/180
f 69/98/163 76/102/181 75/99/179
f 77/103/182 69/83/162 70/84/165
f 77/104/183 76/102/184 69/98/163
f 72/105/173 78/106/185 128/107/168
f 72/105/171 79/108/186 78/106/187
f 73/109/188 79/108/186 72/105/171
f 74/110/175 80/111/189 73/109/188
f 73/109/188 80/111/189 79/108/186
f 75/112/179 81/113/190 74/110/175
f 74/110/175 81/113/190 80/111/189
f 76/114/191 82/115/192 75/112/178
f 75/112/178 82/115/192 81/113/193
f 76/114/184 83/116/194 82/115/192
f 84/117/195 83/116/194 76/114/191
f 77/104/183 84/118/196 76/102/181
f 85/119/197 78/106/187 79/108/186
f 86/120/198 79/108/186 80/111/189
f 86/120/199 85/119/197 79/108/186
f 87/121/200 86/120/198 80/111/189
f 87/121/201 80/111/189 81/113/190
f 88/122/202 81/113/190 82/115/192
f 88/122/202 87/121/201 81/113/190
f 89/123/203 82/115/192 83/116/194
f 89/123/204 88/122/202 82/115/192
f 85/119/197 126/124/205 78/106/187
f 85/119/206 90/125/207 126/124/205
f 86/120/198 91/126/208 85/119/197
f 85/119/197 91/126/208 90/125/209
f 86/120/199 92/127/210 91/126/208
f 87/128/201 92/129/211 86/130/198
f 88/122/212 93/131/213 87/121/201
f 87/128/201 93/132/214 92/129/210
f 89/123/203 94/133/215 88/122/202
f 88/122/202 94/133/215 93/131/213
f 89/123/203 95/134/216 94/133/215
f 96/135/217 89/123/203 83/116/194
f 96/136/218 95/137/216 89/138/203
f 91/126/208 240/139/219 90/125/207
f 91/126/208 239/140/220 240/139/219
f 92/127/211 239/140/220 91/126/208
f 93/131/214 238/141/221 92/127/211
f 92/127/210 238/141/221 239/140/220
f 94/133/215 237/142/222 93/131/214
f 93/131/213 237/142/222 238/141/221
f 94/133/215 236/143/223 237/142/222
f 95/134/216 236/143/223 94/133/215
f 95/134/224 235/144/225 236/143/223
f 96/136/218 97/145/226 95/137/216
f 97/146/227 235/144/225 95/134/216
f 98/147/228 97/146/226 96/135/218
f 96/135/218 83/116/194 99/148/229
f 84/117/195 99/148/229 83/116/194
f 98/147/230 96/135/218 99/148/229
f 100/149/231 99/148/232 84/117/196
f 101/150/233 100/151/231 84/118/195
f 101/150/233 84/118/195 77/104/234
f 97/146/227 102/152/235 235/144/225
f 98/147/230 103/153/236 97/146/227
f 103/153/236 102/152/235 97/146/226
f 104/154/237 103/153/236 98/147/230
f 98/147/230 99/148/229 105/155/238
f 100/149/231 105/155/238 99/148/229
f 104/154/237 98/147/228 105/155/238
f 106/156/239 105/155/238 100/149/231
f 107/157/240 106/158/241 100/159/242
f 107/157/240 100/159/231 101/160/233
f 103/153/236 234/161/243 102/152/235
f 104/154/244 108/162/245 103/153/236
f 108/162/246 234/161/243 103/153/236
f 109/163/247 108/164/246 104/165/237
f 104/154/237 105/155/238 110/166/248
f 106/156/249 110/166/248 105/155/238
f 109/167/250 104/154/237 110/166/248
f 111/168/251 110/166/248 106/156/252
f 112/169/253 111/170/251 106/158/239
f 112/169/254 106/158/241 107/157/240
f 108/162/245 233/171/255 234/161/243
f 109/163/247 113/172/256 108/164/245
f 113/173/257 233/171/255 108/162/246
f 114/174/258 113/173/256 109/167/247
f 109/167/247 110/166/248 115/175/259
f 111/168/251 115/175/259 110/166/248
f 114/174/260 109/167/247 115/175/259
f 116/176/261 115/175/262 111/168/251
f 117/177/263 116/178/264 111/170/251
f 117/177/263 111/170/251 112/169/253
f 113/173/257 118/179/265 233/171/255
f 114/174/260 119/180/266 113/173/257
f 119/180/266 118/179/265 113/173/256
f 120/181/267 119/180/266 114/174/260
f 114/174/260 115/175/259 121/182/268
f 116/176/264 121/182/268 115/175/262
f 120/181/269 114/174/258 121/182/268
f 122/183/270 121/182/268 116/176/261
f 123/184/271 116/185/264 117/186/263
f 123/184/272 122/187/273 116/185/264
f 119/180/266 124/188/274 118/179/265
f 125/189/275 124/188/274 119/180/266
f 120/181/267 125/189/275 119/180/266
f 126/190/205 125/191/275 120/192/267
f 120/181/267 121/182/268 127/193/276
f 122/183/277 127/193/276 121/182/268
f 126/124/278 120/181/267 127/193/276
f 128/107/279 127/193/276 122/183/280
f 71/89/281 122/187/277 123/184/272
f 71/89/282 128/88/168 122/187/270
f 125/189/283 241/194/284 124/188/274
f 90/125/209 241/194/284 125/189/275
f 126/190/205 90/195/207 125/191/275
f 90/125/209 240/139/219 241/194/284
f 126/124/205 127/193/276 78/106/187
f 128/107/168 78/106/185 127/193/276
f 129/16/285 130/196/285 131/197/285
f 129/16/285 131/197/285 132/17/285
f 132/17/285 131/197/285 179/198/285
f 132/17/285 179/198/285 133/18/285
f 133/18/285 179/198/285 134/19/285
f 133/18/285 134/19/285 135/19/285
f 135/19/285 134/19/285 136/199/285
f 135/19/285 136/199/285 20/20/285
f 20/20/285 136/199/285 178/200/285
f 20/20/285 178/200/285 19/21/285
f 19/21/285 178/200/285 177/201/285
f 19/21/285 177/201/285 18/22/285
f 18/22/285 177/201/285 137/200/285
f 18/22/285 137/200/285 17/21/285
f 17/21/285 137/200/285 138/199/285
f 17/21/285 138/199/285 139/20/285
f 139/20/285 138/199/285 140/19/285
f 139/20/285 140/19/285 141/19/285
f 141/19/285 140/19/285 142/198/285
f 141/19/285 142/198/285 143/18/285
f 143/18/285 142/198/285 144/197/285
f 143/18/285 144/197/285 145/17/285
f 145/17/285 144/197/285 130/196/285
f 145/17/285 130/196/285 129/16/285
f 146/202/286 14/3/287 147/203/288
f 146/202/289 148/1/1 14/3/3
f 149/204/290 148/1/1 146/202/289
f 149/204/291 150/5/6 148/1/1
f 157/205/292 150/5/293 149/204/291
f 157/205/294 151/7/295 150/5/296
f 159/206/297 151/7/16 157/205/294
f 159/206/298 152/9/22 151/7/12
f 161/207/299 152/9/14 159/206/298
f 161/207/300 153/11/23 152/9/22
f 163/208/301 153/11/27 161/207/300
f 163/208/301 154/13/26 153/11/302
f 165/207/303 154/13/304 163/208/301
f 165/207/305 5/11/30 154/13/26
f 167/206/306 5/11/307 165/207/305
f 167/206/308 7/9/35 5/11/30
f 169/205/309 7/9/39 167/206/308
f 169/205/309 9/7/38 7/9/310
f 155/209/311 9/7/312 169/205/309
f 155/209/313 11/15/42 9/7/38
f 156/202/314 11/15/42 155/209/313
f 156/202/315 13/1/45 11/15/42
f 147/203/288 13/1/316 156/202/315
f 147/203/288 14/3/3 13/1/317
f 228/25/318 147/203/319 171/24/320
f 228/25/321 146/202/322 147/203/288
f 229/27/323 146/202/322 228/25/324
f 229/27/325 149/204/326 146/202/322
f 230/29/327 149/204/326 229/27/323
f 230/29/328 157/205/329 149/204/290
f 158/31/330 157/205/292 230/29/327
f 158/31/330 159/206/331 157/205/329
f 160/37/332 159/206/298 158/31/333
f 160/37/334 161/207/300 159/206/297
f 162/39/335 161/207/336 160/37/337
f 162/39/338 163/208/301 161/207/300
f 164/37/339 163/208/340 162/39/338
f 164/37/91 165/207/341 163/208/301
f 166/31/81 165/207/341 164/37/342
f 166/31/87 167/206/343 165/207/341
f 168/29/78 167/206/308 166/31/344
f 168/29/78 169/205/345 167/206/308
f 24/27/346 169/205/309 168/29/77
f 24/27/75 155/209/347 169/205/309
f 170/25/72 155/209/347 24/27/75
f 170/25/71 156/202/315 155/209/347
f 171/24/320 156/202/348 170/25/349
f 171/24/70 147/203/288 156/202/315
f 130/196/61 172/210/350 173/211/351
f 130/196/61 144/197/352 172/210/350
f 144/197/63 175/212/353 172/210/350
f 144/197/63 142/198/64 175/212/353
f 142/198/64 174/213/354 175/212/353
f 142/198/64 140/19/65 174/213/354
f 140/19/65 176/214/355 174/213/354
f 140/19/65 138/199/356 176/214/355
f 138/199/67 181/215/357 176/214/355
f 138/199/67 137/200/358 181/215/357
f 137/200/68 182/216/359 181/215/357
f 137/200/68 177/201/52 182/216/359
f 177/201/360 183/215/361 182/216/362
f 177/201/360 178/200/363 183/215/361
f 178/200/55 184/214/364 183/215/361
f 178/200/55 136/199/365 184/214/364
f 136/199/56 185/213/366 184/214/364
f 136/199/56 134/19/57 185/213/366
f 134/19/367 186/212/368 185/213/369
f 134/19/367 179/198/59 186/212/368
f 179/198/59 180/210/370 186/212/368
f 179/198/59 131/197/60 180/210/370
f 131/197/60 173/211/351 180/210/371
f 131/197/60 130/196/372 173/211/351
f 175/212/285 173/211/285 172/210/285
f 174/213/285 173/211/285 175/212/285
f 176/214/285 173/211/285 174/213/285
f 181/215/285 173/211/285 176/214/285
f 182/216/285 173/211/285 181/215/285
f 183/215/285 173/211/285 182/216/285
f 184/214/285 173/211/285 183/215/285
f 185/213/285 173/211/285 184/214/285
f 186/212/285 173/211/285 185/213/285
f 180/210/285 173/211/285 186/212/285
f 71/217/281 123/218/271 187/219/373
f 123/220/374 117/221/263 188/222/375
f 123/220/271 188/222/375 187/223/376
f 117/221/263 112/224/377 189/225/378
f 117/221/263 189/225/378 188/222/379
f 112/224/253 190/226/380 189/225/378
f 112/224/253 107/227/240 190/226/381
f 71/217/167 187/219/376 58/228/140
f 187/68/373 191/60/129 58/67/382
f 188/69/375 192/229/383 187/68/376
f 187/68/373 192/229/383 191/60/131
f 188/69/375 193/230/384 192/229/383
f 189/70/378 193/230/384 188/69/379
f 190/231/381 194/63/385 189/70/386
f 189/70/378 194/63/385 193/230/384
f 190/231/381 195/64/387 194/63/388
f 196/85/389 195/64/387 190/231/380
f 107/227/390 196/232/389 190/226/380
f 107/227/240 101/233/233 196/232/389
f 192/229/391 197/53/119 191/60/129
f 193/230/392 198/234/393 192/229/383
f 192/229/391 198/234/393 197/53/119
f 194/63/388 199/55/394 193/230/384
f 193/230/384 199/55/394 198/234/393
f 195/64/395 200/56/396 194/63/385
f 194/63/385 200/56/397 199/55/394
f 195/64/387 201/235/398 200/56/396
f 202/236/399 201/235/398 195/64/387
f 196/85/389 202/236/400 195/64/395
f 101/233/233 203/237/401 196/232/402
f 101/233/403 77/238/404 203/237/401
f 77/103/404 70/84/164 203/239/401
f 203/240/401 202/236/400 196/85/402
f 198/234/393 39/46/105 197/53/115
f 199/55/394 204/47/405 198/234/393
f 198/234/393 204/47/405 39/46/105
f 200/56/396 205/48/406 199/55/394
f 199/55/394 205/48/407 204/47/405
f 201/235/398 206/49/408 200/56/397
f 200/56/397 206/49/408 205/48/406
f 201/235/398 207/50/409 206/49/410
f 202/236/399 208/241/411 201/235/398
f 208/241/411 207/50/409 201/235/398
f 209/242/412 208/241/411 202/236/400
f 209/242/413 64/73/151 208/241/411
f 70/85/165 63/72/149 209/242/412
f 70/85/165 209/242/413 203/240/414
f 63/72/152 64/73/153 209/242/413
f 203/240/401 209/242/413 202/236/400
f 204/47/415 38/45/104 39/46/105
f 205/48/406 210/40/416 204/47/405
f 204/47/415 210/40/417 38/45/104
f 205/48/406 211/41/418 210/40/416
f 206/49/408 211/41/419 205/48/406
f 207/50/420 212/42/421 206/49/408
f 206/49/408 212/42/422 211/41/419
f 207/50/420 213/43/423 212/42/421
f 64/73/151 57/66/139 214/58/424
f 208/241/411 214/58/425 207/50/409
f 64/73/153 214/58/424 208/241/411
f 214/58/424 213/43/426 207/50/420
f 215/33/427 38/45/104 210/40/417
f 216/34/428 210/40/416 211/41/418
f 216/34/428 215/33/427 210/40/417
f 211/41/418 217/35/429 216/34/428
f 211/41/419 212/42/421 217/35/429
f 218/44/430 212/42/421 213/43/423
f 218/44/431 217/35/429 212/42/421
f 219/52/432 218/44/430 213/43/423
f 57/66/139 220/51/433 214/58/424
f 219/52/432 213/43/426 220/51/434
f 214/58/424 220/51/434 213/43/426
f 57/66/139 51/59/435 220/51/433
f 215/33/436 27/32/82 38/45/104
f 215/33/427 221/23/437 27/32/82
f 215/33/427 222/26/438 221/23/69
f 216/34/428 222/26/439 215/33/427
f 217/35/429 223/28/440 216/34/428
f 216/34/428 223/28/440 222/26/439
f 218/44/430 224/30/441 217/35/429
f 217/35/429 224/30/441 223/28/442
f 218/44/430 225/36/443 224/30/441
f 219/52/432 225/36/444 218/44/430
f 219/52/432 226/38/445 225/36/444
f 227/243/446 226/38/445 219/52/432
f 227/243/446 219/52/432 220/51/434
f 227/243/446 220/51/433 51/59/128
f 45/52/447 227/243/446 51/59/128
f 222/26/438 171/24/320 221/23/437
f 223/28/440 228/25/321 222/26/438
f 222/26/438 228/25/321 171/24/448
f 224/30/441 229/27/325 223/28/440
f 223/28/440 229/27/325 228/25/449
f 224/30/441 230/29/450 229/27/323
f 225/36/443 230/29/327 224/30/441
f 226/38/445 158/31/330 225/36/443
f 225/36/443 158/31/330 230/29/328
f 226/38/445 160/37/332 158/31/333
f 45/52/113 32/38/92 231/244/451
f 231/244/451 160/37/332 226/38/445
f 227/243/446 231/244/451 226/38/445
f 45/52/113 231/244/452 227/243/446
f 32/38/92 162/39/335 231/244/451
f 231/244/451 162/39/338 160/37/334
f 124/188/274 232/245/453 118/179/265
f 232/245/453 233/171/454 118/179/265
f 232/245/453 234/161/243 233/171/255
f 232/245/453 102/152/235 234/161/243
f 232/245/453 235/144/455 102/152/235
f 232/245/453 236/143/223 235/144/225
f 232/245/453 237/142/222 236/143/223
f 238/141/456 237/142/222 232/245/453
f 239/140/220 238/141/221 232/245/453
f 240/139/219 239/140/220 232/245/453
f 124/188/274 241/194/284 232/245/453
f 241/194/457 240/139/219 232/245/453
f 242/246/458 243/247/459 244/248/460
f 245/249/461 244/248/462 243/247/459
f 243/247/459 246/250/463 245/249/461
f 246/250/464 243/247/465 247/251/466
f 324/252/467 247/251/468 243/247/469
f 248/253/470 243/247/465 242/246/458
f 243/247/459 248/253/471 324/252/467
f 249/254/472 248/253/470 242/246/473
f 250/255/474 245/249/461 246/250/463
f 247/251/468 251/256/475 246/250/463
f 251/256/476 250/255/477 246/250/463
f 251/256/476 247/251/468 252/257/478
f 253/258/479 252/257/480 247/251/466
f 247/251/468 324/252/467 253/258/479
f 254/259/481 244/248/482 245/249/461
f 245/249/461 250/255/474 254/259/483
f 250/255/474 255/260/484 254/259/483
f 255/260/484 250/255/474 256/261/485
f 257/262/486 256/261/485 250/255/474
f 250/255/474 251/256/487 257/262/486
f 251/256/476 258/263/488 257/262/486
f 252/257/478 259/264/489 251/256/476
f 258/263/488 251/256/490 259/264/491
f 252/257/480 253/258/492 322/265/493
f 322/265/493 260/266/494 252/257/480
f 259/264/495 252/257/480 260/266/494
f 260/266/494 322/265/493 261/267/496
f 321/268/497 260/266/494 261/267/496
f 262/269/498 259/264/499 260/266/500
f 260/266/500 321/268/497 262/269/498
f 321/268/497 263/270/501 262/269/498
f 263/270/501 321/268/502 264/271/503
f 264/271/504 321/268/505 265/272/506
f 263/270/507 266/273/508 262/269/498
f 259/264/499 262/269/498 266/273/508
f 266/273/509 263/270/501 267/274/510
f 268/275/511 267/274/510 263/270/507
f 264/271/512 268/275/511 263/270/501
f 268/275/511 264/271/512 265/272/513
f 265/272/506 269/276/514 268/275/511
f 269/276/515 265/272/506 323/277/516
f 323/277/516 308/278/517 269/276/515
f 308/278/517 323/277/516 270/279/518
f 271/280/519 259/264/491 266/273/508
f 259/264/520 271/280/519 258/263/488
f 272/281/521 266/273/508 267/274/510
f 266/273/508 272/281/521 271/280/519
f 267/274/510 268/275/511 273/282/522
f 273/282/522 272/281/521 267/274/510
f 274/283/523 268/275/511 269/276/515
f 268/275/511 274/283/524 273/282/522
f 269/276/514 275/284/525 274/283/526
f 275/284/525 269/276/515 308/278/517
f 276/285/527 257/262/486 258/263/488
f 271/280/519 276/285/527 258/263/488
f 276/285/527 271/280/519 277/286/528
f 278/287/529 271/280/530 272/281/521
f 271/280/530 278/287/531 277/286/532
f 272/281/521 279/288/533 278/287/531
f 279/288/533 272/281/521 280/289/534
f 272/281/521 273/282/535 280/289/536
f 275/284/537 281/290/538 274/283/539
f 281/290/540 273/282/522 274/283/523
f 273/282/522 281/290/540 280/289/534
f 281/290/540 275/284/541 311/291/542
f 257/262/486 276/285/527 282/292/543
f 256/261/544 257/262/545 282/292/543
f 276/285/527 283/293/546 282/292/543
f 283/293/546 276/285/527 284/294/547
f 277/286/548 284/294/549 276/285/527
f 284/294/550 277/286/528 285/295/551
f 286/296/552 277/286/528 278/287/531
f 277/286/528 286/296/553 285/295/554
f 287/297/555 278/287/531 279/288/533
f 278/287/531 287/297/556 286/296/552
f 282/292/543 288/298/557 256/261/485
f 288/298/557 282/292/558 283/293/559
f 256/261/544 288/298/557 255/260/560
f 283/293/559 289/299/561 288/298/557
f 284/294/562 290/300/563 283/293/559
f 289/299/561 283/293/559 290/300/564
f 290/300/563 284/294/550 291/301/565
f 285/295/551 291/301/565 284/294/550
f 291/301/565 285/295/551 292/302/566
f 293/303/567 285/295/551 286/296/553
f 285/295/551 293/303/568 292/302/566
f 294/304/569 255/260/570 288/298/557
f 289/299/571 294/304/569 288/298/557
f 294/304/569 289/299/572 295/305/573
f 296/306/574 255/260/560 294/304/569
f 295/305/573 296/306/575 294/304/569
f 296/306/575 295/305/573 297/307/576
f 298/308/577 296/306/574 297/307/576
f 255/260/484 296/306/578 299/309/579
f 296/306/575 298/308/577 300/310/580
f 300/310/581 299/309/582 296/306/574
f 298/308/583 319/311/584 300/310/581
f 319/311/585 298/308/586 318/312/587
f 255/260/484 301/313/588 254/259/589
f 244/248/590 254/259/483 301/313/588
f 301/313/588 255/260/484 299/309/579
f 299/309/579 300/310/591 302/314/592
f 302/314/592 301/313/588 299/309/593
f 300/310/591 303/315/594 302/314/592
f 303/315/594 300/310/595 319/311/585
f 248/253/471 249/254/596 325/316/597
f 249/254/598 304/317/599 325/316/600
f 304/317/599 249/254/472 305/318/601
f 249/254/598 306/319/602 305/318/603
f 306/319/602 249/254/472 307/320/604
f 242/246/605 307/320/604 249/254/472
f 307/320/606 242/246/607 244/248/460
f 301/313/588 307/320/608 244/248/482
f 305/318/601 270/279/518 304/317/599
f 306/319/602 308/278/609 305/318/601
f 270/279/518 305/318/610 308/278/609
f 308/278/609 306/319/611 275/284/612
f 309/321/613 302/314/592 303/315/594
f 307/320/604 309/321/613 306/319/602
f 309/321/613 275/284/525 306/319/611
f 301/313/588 302/314/592 310/322/614
f 302/314/592 309/321/613 310/322/614
f 309/321/615 307/320/604 310/322/614
f 307/320/604 301/313/588 310/322/614
f 303/315/594 311/291/616 309/321/613
f 275/284/617 309/321/613 311/291/542
f 311/291/542 303/315/618 312/323/619
f 280/289/620 313/324/621 279/288/533
f 313/324/621 280/289/536 281/290/540
f 311/291/542 313/324/621 281/290/540
f 313/324/622 311/291/616 312/323/623
f 279/288/624 314/325/625 287/297/556
f 312/323/623 314/325/625 313/324/621
f 314/325/625 279/288/533 313/324/621
f 314/325/625 312/323/623 315/326/626
f 315/326/627 316/327/628 314/325/625
f 316/327/629 287/297/555 314/325/625
f 316/327/630 315/326/626 317/328/631
f 315/326/632 318/312/633 317/328/634
f 312/323/619 319/311/635 315/326/626
f 319/311/584 312/323/619 303/315/594
f 318/312/633 315/326/626 319/311/636
f 320/329/637 286/296/552 287/297/555
f 286/296/552 320/329/638 293/303/639
f 287/297/556 316/327/629 320/329/637
f 321/268/640 261/267/641 265/272/506
f 265/272/506 261/267/641 304/317/642
f 261/267/641 253/258/492 304/317/642
f 322/265/643 253/258/479 261/267/641
f 323/277/516 265/272/506 304/317/599
f 270/279/644 323/277/645 304/317/646
f 253/258/647 324/252/467 304/317/642
f 324/252/467 248/253/648 304/317/642
f 325/316/649 304/317/646 248/253/648
